<mxfile host="65bd71144e">
    <diagram id="mnacTOTQ5TEzgV0kn5ui" name="Page-1">
        <mxGraphModel dx="2235" dy="1700" grid="1" gridSize="10" guides="1" tooltips="1" connect="1" arrows="1" fold="1" page="1" pageScale="1" pageWidth="850" pageHeight="1100" math="0" shadow="0">
            <root>
                <mxCell id="0"/>
                <mxCell id="1" parent="0"/>
                <mxCell id="120" value="under 10 eur" style="rounded=0;whiteSpace=wrap;html=1;" parent="1" vertex="1">
                    <mxGeometry x="305" y="350" width="120" height="60" as="geometry"/>
                </mxCell>
                <mxCell id="121" value="under 5 eur&lt;br&gt;table" style="rounded=0;whiteSpace=wrap;html=1;" parent="1" vertex="1">
                    <mxGeometry x="305" y="10" width="120" height="60" as="geometry"/>
                </mxCell>
                <mxCell id="122" value="" style="shape=table;html=1;whiteSpace=wrap;startSize=0;container=1;collapsible=0;childLayout=tableLayout;" parent="1" vertex="1">
                    <mxGeometry x="40" y="435" width="330" height="230" as="geometry"/>
                </mxCell>
                <mxCell id="123" value="" style="shape=tableRow;horizontal=0;startSize=0;swimlaneHead=0;swimlaneBody=0;top=0;left=0;bottom=0;right=0;collapsible=0;dropTarget=0;fillColor=none;points=[[0,0.5],[1,0.5]];portConstraint=eastwest;" parent="122" vertex="1">
                    <mxGeometry width="330" height="77" as="geometry"/>
                </mxCell>
                <mxCell id="124" value="id" style="shape=partialRectangle;html=1;whiteSpace=wrap;connectable=0;fillColor=#0050ef;top=0;left=0;bottom=0;right=0;overflow=hidden;fontColor=#ffffff;strokeColor=#001DBC;" parent="123" vertex="1">
                    <mxGeometry width="110" height="77" as="geometry">
                        <mxRectangle width="110" height="77" as="alternateBounds"/>
                    </mxGeometry>
                </mxCell>
                <mxCell id="125" value="name" style="shape=partialRectangle;html=1;whiteSpace=wrap;connectable=0;fillColor=#0050ef;top=0;left=0;bottom=0;right=0;overflow=hidden;fontColor=#ffffff;strokeColor=#001DBC;" parent="123" vertex="1">
                    <mxGeometry x="110" width="110" height="77" as="geometry">
                        <mxRectangle width="110" height="77" as="alternateBounds"/>
                    </mxGeometry>
                </mxCell>
                <mxCell id="126" value="sk-verzia" style="shape=partialRectangle;html=1;whiteSpace=wrap;connectable=0;fillColor=#0050ef;top=0;left=0;bottom=0;right=0;overflow=hidden;fontColor=#ffffff;strokeColor=#001DBC;" parent="123" vertex="1">
                    <mxGeometry x="220" width="110" height="77" as="geometry">
                        <mxRectangle width="110" height="77" as="alternateBounds"/>
                    </mxGeometry>
                </mxCell>
                <mxCell id="127" value="" style="shape=tableRow;horizontal=0;startSize=0;swimlaneHead=0;swimlaneBody=0;top=0;left=0;bottom=0;right=0;collapsible=0;dropTarget=0;fillColor=none;points=[[0,0.5],[1,0.5]];portConstraint=eastwest;" parent="122" vertex="1">
                    <mxGeometry y="77" width="330" height="76" as="geometry"/>
                </mxCell>
                <mxCell id="128" value="" style="shape=partialRectangle;html=1;whiteSpace=wrap;connectable=0;fillColor=none;top=0;left=0;bottom=0;right=0;overflow=hidden;" parent="127" vertex="1">
                    <mxGeometry width="110" height="76" as="geometry">
                        <mxRectangle width="110" height="76" as="alternateBounds"/>
                    </mxGeometry>
                </mxCell>
                <mxCell id="129" value="" style="shape=partialRectangle;html=1;whiteSpace=wrap;connectable=0;fillColor=none;top=0;left=0;bottom=0;right=0;overflow=hidden;" parent="127" vertex="1">
                    <mxGeometry x="110" width="110" height="76" as="geometry">
                        <mxRectangle width="110" height="76" as="alternateBounds"/>
                    </mxGeometry>
                </mxCell>
                <mxCell id="130" value="" style="shape=partialRectangle;html=1;whiteSpace=wrap;connectable=0;fillColor=none;top=0;left=0;bottom=0;right=0;overflow=hidden;" parent="127" vertex="1">
                    <mxGeometry x="220" width="110" height="76" as="geometry">
                        <mxRectangle width="110" height="76" as="alternateBounds"/>
                    </mxGeometry>
                </mxCell>
                <mxCell id="131" value="" style="shape=tableRow;horizontal=0;startSize=0;swimlaneHead=0;swimlaneBody=0;top=0;left=0;bottom=0;right=0;collapsible=0;dropTarget=0;fillColor=none;points=[[0,0.5],[1,0.5]];portConstraint=eastwest;" parent="122" vertex="1">
                    <mxGeometry y="153" width="330" height="77" as="geometry"/>
                </mxCell>
                <mxCell id="132" value="" style="shape=partialRectangle;html=1;whiteSpace=wrap;connectable=0;fillColor=none;top=0;left=0;bottom=0;right=0;overflow=hidden;" parent="131" vertex="1">
                    <mxGeometry width="110" height="77" as="geometry">
                        <mxRectangle width="110" height="77" as="alternateBounds"/>
                    </mxGeometry>
                </mxCell>
                <mxCell id="133" value="" style="shape=partialRectangle;html=1;whiteSpace=wrap;connectable=0;fillColor=none;top=0;left=0;bottom=0;right=0;overflow=hidden;" parent="131" vertex="1">
                    <mxGeometry x="110" width="110" height="77" as="geometry">
                        <mxRectangle width="110" height="77" as="alternateBounds"/>
                    </mxGeometry>
                </mxCell>
                <mxCell id="134" value="" style="shape=partialRectangle;html=1;whiteSpace=wrap;connectable=0;fillColor=none;top=0;left=0;bottom=0;right=0;overflow=hidden;pointerEvents=1;" parent="131" vertex="1">
                    <mxGeometry x="220" width="110" height="77" as="geometry">
                        <mxRectangle width="110" height="77" as="alternateBounds"/>
                    </mxGeometry>
                </mxCell>
                <mxCell id="135" value="" style="shape=table;html=1;whiteSpace=wrap;startSize=0;container=1;collapsible=0;childLayout=tableLayout;" parent="1" vertex="1">
                    <mxGeometry x="370" y="435" width="330" height="230" as="geometry"/>
                </mxCell>
                <mxCell id="136" value="" style="shape=tableRow;horizontal=0;startSize=0;swimlaneHead=0;swimlaneBody=0;top=0;left=0;bottom=0;right=0;collapsible=0;dropTarget=0;fillColor=none;points=[[0,0.5],[1,0.5]];portConstraint=eastwest;" parent="135" vertex="1">
                    <mxGeometry width="330" height="77" as="geometry"/>
                </mxCell>
                <mxCell id="137" value="age group" style="shape=partialRectangle;html=1;whiteSpace=wrap;connectable=0;fillColor=#0050ef;top=0;left=0;bottom=0;right=0;overflow=hidden;fontColor=#ffffff;strokeColor=#001DBC;" parent="136" vertex="1">
                    <mxGeometry width="110" height="77" as="geometry">
                        <mxRectangle width="110" height="77" as="alternateBounds"/>
                    </mxGeometry>
                </mxCell>
                <mxCell id="138" value="high-value-tags" style="shape=partialRectangle;html=1;whiteSpace=wrap;connectable=0;fillColor=#0050ef;top=0;left=0;bottom=0;right=0;overflow=hidden;fontColor=#ffffff;strokeColor=#001DBC;" parent="136" vertex="1">
                    <mxGeometry x="110" width="110" height="77" as="geometry">
                        <mxRectangle width="110" height="77" as="alternateBounds"/>
                    </mxGeometry>
                </mxCell>
                <mxCell id="139" value="low-value-tags" style="shape=partialRectangle;html=1;whiteSpace=wrap;connectable=0;fillColor=#0050ef;top=0;left=0;bottom=0;right=0;overflow=hidden;fontColor=#ffffff;strokeColor=#001DBC;" parent="136" vertex="1">
                    <mxGeometry x="220" width="110" height="77" as="geometry">
                        <mxRectangle width="110" height="77" as="alternateBounds"/>
                    </mxGeometry>
                </mxCell>
                <mxCell id="140" value="" style="shape=tableRow;horizontal=0;startSize=0;swimlaneHead=0;swimlaneBody=0;top=0;left=0;bottom=0;right=0;collapsible=0;dropTarget=0;fillColor=none;points=[[0,0.5],[1,0.5]];portConstraint=eastwest;" parent="135" vertex="1">
                    <mxGeometry y="77" width="330" height="76" as="geometry"/>
                </mxCell>
                <mxCell id="141" value="" style="shape=partialRectangle;html=1;whiteSpace=wrap;connectable=0;fillColor=none;top=0;left=0;bottom=0;right=0;overflow=hidden;" parent="140" vertex="1">
                    <mxGeometry width="110" height="76" as="geometry">
                        <mxRectangle width="110" height="76" as="alternateBounds"/>
                    </mxGeometry>
                </mxCell>
                <mxCell id="142" value="" style="shape=partialRectangle;html=1;whiteSpace=wrap;connectable=0;fillColor=none;top=0;left=0;bottom=0;right=0;overflow=hidden;" parent="140" vertex="1">
                    <mxGeometry x="110" width="110" height="76" as="geometry">
                        <mxRectangle width="110" height="76" as="alternateBounds"/>
                    </mxGeometry>
                </mxCell>
                <mxCell id="143" value="" style="shape=partialRectangle;html=1;whiteSpace=wrap;connectable=0;fillColor=none;top=0;left=0;bottom=0;right=0;overflow=hidden;" parent="140" vertex="1">
                    <mxGeometry x="220" width="110" height="76" as="geometry">
                        <mxRectangle width="110" height="76" as="alternateBounds"/>
                    </mxGeometry>
                </mxCell>
                <mxCell id="144" value="" style="shape=tableRow;horizontal=0;startSize=0;swimlaneHead=0;swimlaneBody=0;top=0;left=0;bottom=0;right=0;collapsible=0;dropTarget=0;fillColor=none;points=[[0,0.5],[1,0.5]];portConstraint=eastwest;arcSize=15;" parent="135" vertex="1">
                    <mxGeometry y="153" width="330" height="77" as="geometry"/>
                </mxCell>
                <mxCell id="145" value="" style="shape=partialRectangle;html=1;whiteSpace=wrap;connectable=0;fillColor=none;top=0;left=0;bottom=0;right=0;overflow=hidden;" parent="144" vertex="1">
                    <mxGeometry width="110" height="77" as="geometry">
                        <mxRectangle width="110" height="77" as="alternateBounds"/>
                    </mxGeometry>
                </mxCell>
                <mxCell id="146" value="" style="shape=partialRectangle;html=1;whiteSpace=wrap;connectable=0;fillColor=none;top=0;left=0;bottom=0;right=0;overflow=hidden;" parent="144" vertex="1">
                    <mxGeometry x="110" width="110" height="77" as="geometry">
                        <mxRectangle width="110" height="77" as="alternateBounds"/>
                    </mxGeometry>
                </mxCell>
                <mxCell id="147" value="" style="shape=partialRectangle;html=1;whiteSpace=wrap;connectable=0;fillColor=none;top=0;left=0;bottom=0;right=0;overflow=hidden;pointerEvents=1;" parent="144" vertex="1">
                    <mxGeometry x="220" width="110" height="77" as="geometry">
                        <mxRectangle width="110" height="77" as="alternateBounds"/>
                    </mxGeometry>
                </mxCell>
                <mxCell id="161" value="int" style="ellipse;whiteSpace=wrap;html=1;aspect=fixed;" parent="1" vertex="1">
                    <mxGeometry x="70" y="525" width="50" height="50" as="geometry"/>
                </mxCell>
                <mxCell id="162" value="string" style="ellipse;whiteSpace=wrap;html=1;aspect=fixed;" parent="1" vertex="1">
                    <mxGeometry x="180" y="525" width="50" height="50" as="geometry"/>
                </mxCell>
                <mxCell id="163" value="string" style="ellipse;whiteSpace=wrap;html=1;aspect=fixed;" parent="1" vertex="1">
                    <mxGeometry x="290" y="525" width="50" height="50" as="geometry"/>
                </mxCell>
                <mxCell id="164" value="array" style="ellipse;whiteSpace=wrap;html=1;aspect=fixed;" parent="1" vertex="1">
                    <mxGeometry x="400" y="525" width="50" height="50" as="geometry"/>
                </mxCell>
                <mxCell id="165" value="Example query&lt;br&gt;(this will happen for every table)" style="rounded=0;whiteSpace=wrap;html=1;fillColor=#a20025;fontColor=#ffffff;strokeColor=#6F0000;" parent="1" vertex="1">
                    <mxGeometry x="50" y="850" width="120" height="60" as="geometry"/>
                </mxCell>
                <mxCell id="171" value="step 1" style="rounded=0;whiteSpace=wrap;html=1;" parent="1" vertex="1">
                    <mxGeometry x="430" y="850" width="120" height="60" as="geometry"/>
                </mxCell>
                <mxCell id="172" value="" style="endArrow=classic;html=1;exitX=1;exitY=0.5;exitDx=0;exitDy=0;entryX=0;entryY=0.5;entryDx=0;entryDy=0;" parent="1" source="165" target="171" edge="1">
                    <mxGeometry width="50" height="50" relative="1" as="geometry">
                        <mxPoint x="420" y="870" as="sourcePoint"/>
                        <mxPoint x="470" y="820" as="targetPoint"/>
                    </mxGeometry>
                </mxCell>
                <mxCell id="173" value="" style="endArrow=classic;html=1;exitX=0.5;exitY=1;exitDx=0;exitDy=0;" parent="1" source="171" edge="1">
                    <mxGeometry width="50" height="50" relative="1" as="geometry">
                        <mxPoint x="440" y="1040" as="sourcePoint"/>
                        <mxPoint x="490" y="990" as="targetPoint"/>
                    </mxGeometry>
                </mxCell>
                <mxCell id="174" value="" style="endArrow=classic;html=1;" parent="1" edge="1">
                    <mxGeometry width="50" height="50" relative="1" as="geometry">
                        <mxPoint x="550" y="880" as="sourcePoint"/>
                        <mxPoint x="630" y="880" as="targetPoint"/>
                    </mxGeometry>
                </mxCell>
                <mxCell id="175" value="step 2" style="rounded=0;whiteSpace=wrap;html=1;" parent="1" vertex="1">
                    <mxGeometry x="630" y="850" width="120" height="60" as="geometry"/>
                </mxCell>
                <mxCell id="176" value="selects all the items for the age range" style="rounded=0;whiteSpace=wrap;html=1;" parent="1" vertex="1">
                    <mxGeometry x="430" y="990" width="120" height="60" as="geometry"/>
                </mxCell>
                <mxCell id="177" value="removes all the products that dont have any simmilar tags" style="rounded=0;whiteSpace=wrap;html=1;" parent="1" vertex="1">
                    <mxGeometry x="855" y="990" width="170" height="80" as="geometry"/>
                </mxCell>
                <mxCell id="178" value="array" style="ellipse;whiteSpace=wrap;html=1;aspect=fixed;" parent="1" vertex="1">
                    <mxGeometry x="510" y="525" width="50" height="50" as="geometry"/>
                </mxCell>
                <mxCell id="179" value="array" style="ellipse;whiteSpace=wrap;html=1;aspect=fixed;" parent="1" vertex="1">
                    <mxGeometry x="620" y="525" width="50" height="50" as="geometry"/>
                </mxCell>
                <mxCell id="180" value="" style="endArrow=classic;html=1;exitX=0.5;exitY=1;exitDx=0;exitDy=0;" parent="1" source="175" edge="1">
                    <mxGeometry width="50" height="50" relative="1" as="geometry">
                        <mxPoint x="530" y="960" as="sourcePoint"/>
                        <mxPoint x="690" y="980" as="targetPoint"/>
                    </mxGeometry>
                </mxCell>
                <mxCell id="181" value="" style="endArrow=classic;html=1;exitX=1;exitY=0.5;exitDx=0;exitDy=0;" parent="1" source="175" edge="1">
                    <mxGeometry width="50" height="50" relative="1" as="geometry">
                        <mxPoint x="870" y="840" as="sourcePoint"/>
                        <mxPoint x="880" y="880" as="targetPoint"/>
                    </mxGeometry>
                </mxCell>
                <mxCell id="182" value="step 3" style="rounded=0;whiteSpace=wrap;html=1;" parent="1" vertex="1">
                    <mxGeometry x="880" y="850" width="120" height="60" as="geometry"/>
                </mxCell>
                <mxCell id="184" value="give every product a score based on number of high value tags (1 high value tag 1 point)" style="rounded=0;whiteSpace=wrap;html=1;" parent="1" vertex="1">
                    <mxGeometry x="1130" y="990" width="220" height="90" as="geometry"/>
                </mxCell>
                <mxCell id="211" value="under 50 eur" style="rounded=0;whiteSpace=wrap;html=1;" parent="1" vertex="1">
                    <mxGeometry x="1965" y="350" width="120" height="60" as="geometry"/>
                </mxCell>
                <mxCell id="212" value="under 20 eur" style="rounded=0;whiteSpace=wrap;html=1;" parent="1" vertex="1">
                    <mxGeometry x="1265" y="10" width="120" height="60" as="geometry"/>
                </mxCell>
                <mxCell id="213" value="" style="shape=table;html=1;whiteSpace=wrap;startSize=0;container=1;collapsible=0;childLayout=tableLayout;" parent="1" vertex="1">
                    <mxGeometry x="1700" y="435" width="330" height="230" as="geometry"/>
                </mxCell>
                <mxCell id="214" value="" style="shape=tableRow;horizontal=0;startSize=0;swimlaneHead=0;swimlaneBody=0;top=0;left=0;bottom=0;right=0;collapsible=0;dropTarget=0;fillColor=none;points=[[0,0.5],[1,0.5]];portConstraint=eastwest;" parent="213" vertex="1">
                    <mxGeometry width="330" height="77" as="geometry"/>
                </mxCell>
                <mxCell id="215" value="id" style="shape=partialRectangle;html=1;whiteSpace=wrap;connectable=0;fillColor=#0050ef;top=0;left=0;bottom=0;right=0;overflow=hidden;fontColor=#ffffff;strokeColor=#001DBC;" parent="214" vertex="1">
                    <mxGeometry width="110" height="77" as="geometry">
                        <mxRectangle width="110" height="77" as="alternateBounds"/>
                    </mxGeometry>
                </mxCell>
                <mxCell id="216" value="name" style="shape=partialRectangle;html=1;whiteSpace=wrap;connectable=0;fillColor=#0050ef;top=0;left=0;bottom=0;right=0;overflow=hidden;fontColor=#ffffff;strokeColor=#001DBC;" parent="214" vertex="1">
                    <mxGeometry x="110" width="110" height="77" as="geometry">
                        <mxRectangle width="110" height="77" as="alternateBounds"/>
                    </mxGeometry>
                </mxCell>
                <mxCell id="217" value="gender" style="shape=partialRectangle;html=1;whiteSpace=wrap;connectable=0;fillColor=#0050ef;top=0;left=0;bottom=0;right=0;overflow=hidden;fontColor=#ffffff;strokeColor=#001DBC;" parent="214" vertex="1">
                    <mxGeometry x="220" width="110" height="77" as="geometry">
                        <mxRectangle width="110" height="77" as="alternateBounds"/>
                    </mxGeometry>
                </mxCell>
                <mxCell id="218" value="" style="shape=tableRow;horizontal=0;startSize=0;swimlaneHead=0;swimlaneBody=0;top=0;left=0;bottom=0;right=0;collapsible=0;dropTarget=0;fillColor=none;points=[[0,0.5],[1,0.5]];portConstraint=eastwest;" parent="213" vertex="1">
                    <mxGeometry y="77" width="330" height="76" as="geometry"/>
                </mxCell>
                <mxCell id="219" value="" style="shape=partialRectangle;html=1;whiteSpace=wrap;connectable=0;fillColor=none;top=0;left=0;bottom=0;right=0;overflow=hidden;" parent="218" vertex="1">
                    <mxGeometry width="110" height="76" as="geometry">
                        <mxRectangle width="110" height="76" as="alternateBounds"/>
                    </mxGeometry>
                </mxCell>
                <mxCell id="220" value="" style="shape=partialRectangle;html=1;whiteSpace=wrap;connectable=0;fillColor=none;top=0;left=0;bottom=0;right=0;overflow=hidden;" parent="218" vertex="1">
                    <mxGeometry x="110" width="110" height="76" as="geometry">
                        <mxRectangle width="110" height="76" as="alternateBounds"/>
                    </mxGeometry>
                </mxCell>
                <mxCell id="221" value="" style="shape=partialRectangle;html=1;whiteSpace=wrap;connectable=0;fillColor=none;top=0;left=0;bottom=0;right=0;overflow=hidden;" parent="218" vertex="1">
                    <mxGeometry x="220" width="110" height="76" as="geometry">
                        <mxRectangle width="110" height="76" as="alternateBounds"/>
                    </mxGeometry>
                </mxCell>
                <mxCell id="222" value="" style="shape=tableRow;horizontal=0;startSize=0;swimlaneHead=0;swimlaneBody=0;top=0;left=0;bottom=0;right=0;collapsible=0;dropTarget=0;fillColor=none;points=[[0,0.5],[1,0.5]];portConstraint=eastwest;" parent="213" vertex="1">
                    <mxGeometry y="153" width="330" height="77" as="geometry"/>
                </mxCell>
                <mxCell id="223" value="" style="shape=partialRectangle;html=1;whiteSpace=wrap;connectable=0;fillColor=none;top=0;left=0;bottom=0;right=0;overflow=hidden;" parent="222" vertex="1">
                    <mxGeometry width="110" height="77" as="geometry">
                        <mxRectangle width="110" height="77" as="alternateBounds"/>
                    </mxGeometry>
                </mxCell>
                <mxCell id="224" value="" style="shape=partialRectangle;html=1;whiteSpace=wrap;connectable=0;fillColor=none;top=0;left=0;bottom=0;right=0;overflow=hidden;" parent="222" vertex="1">
                    <mxGeometry x="110" width="110" height="77" as="geometry">
                        <mxRectangle width="110" height="77" as="alternateBounds"/>
                    </mxGeometry>
                </mxCell>
                <mxCell id="225" value="" style="shape=partialRectangle;html=1;whiteSpace=wrap;connectable=0;fillColor=none;top=0;left=0;bottom=0;right=0;overflow=hidden;pointerEvents=1;" parent="222" vertex="1">
                    <mxGeometry x="220" width="110" height="77" as="geometry">
                        <mxRectangle width="110" height="77" as="alternateBounds"/>
                    </mxGeometry>
                </mxCell>
                <mxCell id="226" value="" style="shape=table;html=1;whiteSpace=wrap;startSize=0;container=1;collapsible=0;childLayout=tableLayout;" parent="1" vertex="1">
                    <mxGeometry x="2030" y="435" width="330" height="230" as="geometry"/>
                </mxCell>
                <mxCell id="227" value="" style="shape=tableRow;horizontal=0;startSize=0;swimlaneHead=0;swimlaneBody=0;top=0;left=0;bottom=0;right=0;collapsible=0;dropTarget=0;fillColor=none;points=[[0,0.5],[1,0.5]];portConstraint=eastwest;" parent="226" vertex="1">
                    <mxGeometry width="330" height="77" as="geometry"/>
                </mxCell>
                <mxCell id="228" value="age group" style="shape=partialRectangle;html=1;whiteSpace=wrap;connectable=0;fillColor=#0050ef;top=0;left=0;bottom=0;right=0;overflow=hidden;fontColor=#ffffff;strokeColor=#001DBC;" parent="227" vertex="1">
                    <mxGeometry width="110" height="77" as="geometry">
                        <mxRectangle width="110" height="77" as="alternateBounds"/>
                    </mxGeometry>
                </mxCell>
                <mxCell id="229" value="high-value-tags" style="shape=partialRectangle;html=1;whiteSpace=wrap;connectable=0;fillColor=#0050ef;top=0;left=0;bottom=0;right=0;overflow=hidden;fontColor=#ffffff;strokeColor=#001DBC;" parent="227" vertex="1">
                    <mxGeometry x="110" width="110" height="77" as="geometry">
                        <mxRectangle width="110" height="77" as="alternateBounds"/>
                    </mxGeometry>
                </mxCell>
                <mxCell id="230" value="low-value-tags" style="shape=partialRectangle;html=1;whiteSpace=wrap;connectable=0;fillColor=#0050ef;top=0;left=0;bottom=0;right=0;overflow=hidden;fontColor=#ffffff;strokeColor=#001DBC;" parent="227" vertex="1">
                    <mxGeometry x="220" width="110" height="77" as="geometry">
                        <mxRectangle width="110" height="77" as="alternateBounds"/>
                    </mxGeometry>
                </mxCell>
                <mxCell id="231" value="" style="shape=tableRow;horizontal=0;startSize=0;swimlaneHead=0;swimlaneBody=0;top=0;left=0;bottom=0;right=0;collapsible=0;dropTarget=0;fillColor=none;points=[[0,0.5],[1,0.5]];portConstraint=eastwest;" parent="226" vertex="1">
                    <mxGeometry y="77" width="330" height="76" as="geometry"/>
                </mxCell>
                <mxCell id="232" value="" style="shape=partialRectangle;html=1;whiteSpace=wrap;connectable=0;fillColor=none;top=0;left=0;bottom=0;right=0;overflow=hidden;" parent="231" vertex="1">
                    <mxGeometry width="110" height="76" as="geometry">
                        <mxRectangle width="110" height="76" as="alternateBounds"/>
                    </mxGeometry>
                </mxCell>
                <mxCell id="233" value="" style="shape=partialRectangle;html=1;whiteSpace=wrap;connectable=0;fillColor=none;top=0;left=0;bottom=0;right=0;overflow=hidden;" parent="231" vertex="1">
                    <mxGeometry x="110" width="110" height="76" as="geometry">
                        <mxRectangle width="110" height="76" as="alternateBounds"/>
                    </mxGeometry>
                </mxCell>
                <mxCell id="234" value="" style="shape=partialRectangle;html=1;whiteSpace=wrap;connectable=0;fillColor=none;top=0;left=0;bottom=0;right=0;overflow=hidden;" parent="231" vertex="1">
                    <mxGeometry x="220" width="110" height="76" as="geometry">
                        <mxRectangle width="110" height="76" as="alternateBounds"/>
                    </mxGeometry>
                </mxCell>
                <mxCell id="235" value="" style="shape=tableRow;horizontal=0;startSize=0;swimlaneHead=0;swimlaneBody=0;top=0;left=0;bottom=0;right=0;collapsible=0;dropTarget=0;fillColor=none;points=[[0,0.5],[1,0.5]];portConstraint=eastwest;" parent="226" vertex="1">
                    <mxGeometry y="153" width="330" height="77" as="geometry"/>
                </mxCell>
                <mxCell id="236" value="" style="shape=partialRectangle;html=1;whiteSpace=wrap;connectable=0;fillColor=none;top=0;left=0;bottom=0;right=0;overflow=hidden;" parent="235" vertex="1">
                    <mxGeometry width="110" height="77" as="geometry">
                        <mxRectangle width="110" height="77" as="alternateBounds"/>
                    </mxGeometry>
                </mxCell>
                <mxCell id="237" value="" style="shape=partialRectangle;html=1;whiteSpace=wrap;connectable=0;fillColor=none;top=0;left=0;bottom=0;right=0;overflow=hidden;" parent="235" vertex="1">
                    <mxGeometry x="110" width="110" height="77" as="geometry">
                        <mxRectangle width="110" height="77" as="alternateBounds"/>
                    </mxGeometry>
                </mxCell>
                <mxCell id="238" value="" style="shape=partialRectangle;html=1;whiteSpace=wrap;connectable=0;fillColor=none;top=0;left=0;bottom=0;right=0;overflow=hidden;pointerEvents=1;" parent="235" vertex="1">
                    <mxGeometry x="220" width="110" height="77" as="geometry">
                        <mxRectangle width="110" height="77" as="alternateBounds"/>
                    </mxGeometry>
                </mxCell>
                <mxCell id="239" value="int" style="ellipse;whiteSpace=wrap;html=1;aspect=fixed;" parent="1" vertex="1">
                    <mxGeometry x="1730" y="525" width="50" height="50" as="geometry"/>
                </mxCell>
                <mxCell id="240" value="string" style="ellipse;whiteSpace=wrap;html=1;aspect=fixed;" parent="1" vertex="1">
                    <mxGeometry x="1840" y="525" width="50" height="50" as="geometry"/>
                </mxCell>
                <mxCell id="241" value="string" style="ellipse;whiteSpace=wrap;html=1;aspect=fixed;" parent="1" vertex="1">
                    <mxGeometry x="1950" y="525" width="50" height="50" as="geometry"/>
                </mxCell>
                <mxCell id="242" value="int" style="ellipse;whiteSpace=wrap;html=1;aspect=fixed;" parent="1" vertex="1">
                    <mxGeometry x="2060" y="525" width="50" height="50" as="geometry"/>
                </mxCell>
                <mxCell id="243" value="array" style="ellipse;whiteSpace=wrap;html=1;aspect=fixed;" parent="1" vertex="1">
                    <mxGeometry x="2170" y="525" width="50" height="50" as="geometry"/>
                </mxCell>
                <mxCell id="244" value="array" style="ellipse;whiteSpace=wrap;html=1;aspect=fixed;" parent="1" vertex="1">
                    <mxGeometry x="2280" y="525" width="50" height="50" as="geometry"/>
                </mxCell>
                <mxCell id="306" value="" style="endArrow=none;html=1;exitX=0.5;exitY=1;exitDx=0;exitDy=0;" parent="1" source="165" edge="1">
                    <mxGeometry width="50" height="50" relative="1" as="geometry">
                        <mxPoint x="270" y="970" as="sourcePoint"/>
                        <mxPoint x="110" y="1070" as="targetPoint"/>
                    </mxGeometry>
                </mxCell>
                <mxCell id="307" value="age group" style="rounded=0;whiteSpace=wrap;html=1;" parent="1" vertex="1">
                    <mxGeometry x="155" y="920" width="100" height="40" as="geometry"/>
                </mxCell>
                <mxCell id="308" value="high value tags" style="rounded=0;whiteSpace=wrap;html=1;" parent="1" vertex="1">
                    <mxGeometry x="155" y="1040" width="100" height="40" as="geometry"/>
                </mxCell>
                <mxCell id="309" value="gender group" style="rounded=0;whiteSpace=wrap;html=1;" parent="1" vertex="1">
                    <mxGeometry x="155" y="980" width="100" height="40" as="geometry"/>
                </mxCell>
                <mxCell id="310" value="" style="endArrow=classic;html=1;entryX=0;entryY=0.5;entryDx=0;entryDy=0;" parent="1" target="307" edge="1">
                    <mxGeometry width="50" height="50" relative="1" as="geometry">
                        <mxPoint x="110" y="940" as="sourcePoint"/>
                        <mxPoint x="300" y="930" as="targetPoint"/>
                    </mxGeometry>
                </mxCell>
                <mxCell id="311" value="" style="endArrow=classic;html=1;entryX=0;entryY=0.5;entryDx=0;entryDy=0;" parent="1" edge="1">
                    <mxGeometry width="50" height="50" relative="1" as="geometry">
                        <mxPoint x="110" y="999.71" as="sourcePoint"/>
                        <mxPoint x="155" y="999.71" as="targetPoint"/>
                    </mxGeometry>
                </mxCell>
                <mxCell id="312" value="" style="endArrow=classic;html=1;entryX=0;entryY=0.5;entryDx=0;entryDy=0;" parent="1" edge="1">
                    <mxGeometry width="50" height="50" relative="1" as="geometry">
                        <mxPoint x="110" y="1059.7100000000003" as="sourcePoint"/>
                        <mxPoint x="155" y="1059.7100000000003" as="targetPoint"/>
                    </mxGeometry>
                </mxCell>
                <mxCell id="313" value="" style="shape=table;html=1;whiteSpace=wrap;startSize=0;container=1;collapsible=0;childLayout=tableLayout;" parent="1" vertex="1">
                    <mxGeometry x="40" y="90" width="330" height="230" as="geometry"/>
                </mxCell>
                <mxCell id="314" value="" style="shape=tableRow;horizontal=0;startSize=0;swimlaneHead=0;swimlaneBody=0;top=0;left=0;bottom=0;right=0;collapsible=0;dropTarget=0;fillColor=none;points=[[0,0.5],[1,0.5]];portConstraint=eastwest;" parent="313" vertex="1">
                    <mxGeometry width="330" height="77" as="geometry"/>
                </mxCell>
                <mxCell id="315" value="id" style="shape=partialRectangle;html=1;whiteSpace=wrap;connectable=0;fillColor=#0050ef;top=0;left=0;bottom=0;right=0;overflow=hidden;fontColor=#ffffff;strokeColor=#001DBC;" parent="314" vertex="1">
                    <mxGeometry width="110" height="77" as="geometry">
                        <mxRectangle width="110" height="77" as="alternateBounds"/>
                    </mxGeometry>
                </mxCell>
                <mxCell id="316" value="name" style="shape=partialRectangle;html=1;whiteSpace=wrap;connectable=0;fillColor=#0050ef;top=0;left=0;bottom=0;right=0;overflow=hidden;fontColor=#ffffff;strokeColor=#001DBC;" parent="314" vertex="1">
                    <mxGeometry x="110" width="110" height="77" as="geometry">
                        <mxRectangle width="110" height="77" as="alternateBounds"/>
                    </mxGeometry>
                </mxCell>
                <mxCell id="317" value="gender" style="shape=partialRectangle;html=1;whiteSpace=wrap;connectable=0;fillColor=#0050ef;top=0;left=0;bottom=0;right=0;overflow=hidden;fontColor=#ffffff;strokeColor=#001DBC;" parent="314" vertex="1">
                    <mxGeometry x="220" width="110" height="77" as="geometry">
                        <mxRectangle width="110" height="77" as="alternateBounds"/>
                    </mxGeometry>
                </mxCell>
                <mxCell id="318" value="" style="shape=tableRow;horizontal=0;startSize=0;swimlaneHead=0;swimlaneBody=0;top=0;left=0;bottom=0;right=0;collapsible=0;dropTarget=0;fillColor=none;points=[[0,0.5],[1,0.5]];portConstraint=eastwest;" parent="313" vertex="1">
                    <mxGeometry y="77" width="330" height="76" as="geometry"/>
                </mxCell>
                <mxCell id="319" value="" style="shape=partialRectangle;html=1;whiteSpace=wrap;connectable=0;fillColor=none;top=0;left=0;bottom=0;right=0;overflow=hidden;" parent="318" vertex="1">
                    <mxGeometry width="110" height="76" as="geometry">
                        <mxRectangle width="110" height="76" as="alternateBounds"/>
                    </mxGeometry>
                </mxCell>
                <mxCell id="320" value="" style="shape=partialRectangle;html=1;whiteSpace=wrap;connectable=0;fillColor=none;top=0;left=0;bottom=0;right=0;overflow=hidden;" parent="318" vertex="1">
                    <mxGeometry x="110" width="110" height="76" as="geometry">
                        <mxRectangle width="110" height="76" as="alternateBounds"/>
                    </mxGeometry>
                </mxCell>
                <mxCell id="321" value="" style="shape=partialRectangle;html=1;whiteSpace=wrap;connectable=0;fillColor=none;top=0;left=0;bottom=0;right=0;overflow=hidden;" parent="318" vertex="1">
                    <mxGeometry x="220" width="110" height="76" as="geometry">
                        <mxRectangle width="110" height="76" as="alternateBounds"/>
                    </mxGeometry>
                </mxCell>
                <mxCell id="322" value="" style="shape=tableRow;horizontal=0;startSize=0;swimlaneHead=0;swimlaneBody=0;top=0;left=0;bottom=0;right=0;collapsible=0;dropTarget=0;fillColor=none;points=[[0,0.5],[1,0.5]];portConstraint=eastwest;" parent="313" vertex="1">
                    <mxGeometry y="153" width="330" height="77" as="geometry"/>
                </mxCell>
                <mxCell id="323" value="" style="shape=partialRectangle;html=1;whiteSpace=wrap;connectable=0;fillColor=none;top=0;left=0;bottom=0;right=0;overflow=hidden;" parent="322" vertex="1">
                    <mxGeometry width="110" height="77" as="geometry">
                        <mxRectangle width="110" height="77" as="alternateBounds"/>
                    </mxGeometry>
                </mxCell>
                <mxCell id="324" value="" style="shape=partialRectangle;html=1;whiteSpace=wrap;connectable=0;fillColor=none;top=0;left=0;bottom=0;right=0;overflow=hidden;" parent="322" vertex="1">
                    <mxGeometry x="110" width="110" height="77" as="geometry">
                        <mxRectangle width="110" height="77" as="alternateBounds"/>
                    </mxGeometry>
                </mxCell>
                <mxCell id="325" value="" style="shape=partialRectangle;html=1;whiteSpace=wrap;connectable=0;fillColor=none;top=0;left=0;bottom=0;right=0;overflow=hidden;pointerEvents=1;" parent="322" vertex="1">
                    <mxGeometry x="220" width="110" height="77" as="geometry">
                        <mxRectangle width="110" height="77" as="alternateBounds"/>
                    </mxGeometry>
                </mxCell>
                <mxCell id="326" value="" style="shape=table;html=1;whiteSpace=wrap;startSize=0;container=1;collapsible=0;childLayout=tableLayout;" parent="1" vertex="1">
                    <mxGeometry x="370" y="90" width="330" height="230" as="geometry"/>
                </mxCell>
                <mxCell id="327" value="" style="shape=tableRow;horizontal=0;startSize=0;swimlaneHead=0;swimlaneBody=0;top=0;left=0;bottom=0;right=0;collapsible=0;dropTarget=0;fillColor=none;points=[[0,0.5],[1,0.5]];portConstraint=eastwest;" parent="326" vertex="1">
                    <mxGeometry width="330" height="77" as="geometry"/>
                </mxCell>
                <mxCell id="328" value="age group" style="shape=partialRectangle;html=1;whiteSpace=wrap;connectable=0;fillColor=#0050ef;top=0;left=0;bottom=0;right=0;overflow=hidden;fontColor=#ffffff;strokeColor=#001DBC;" parent="327" vertex="1">
                    <mxGeometry width="110" height="77" as="geometry">
                        <mxRectangle width="110" height="77" as="alternateBounds"/>
                    </mxGeometry>
                </mxCell>
                <mxCell id="329" value="high-value-tags" style="shape=partialRectangle;html=1;whiteSpace=wrap;connectable=0;fillColor=#0050ef;top=0;left=0;bottom=0;right=0;overflow=hidden;fontColor=#ffffff;strokeColor=#001DBC;" parent="327" vertex="1">
                    <mxGeometry x="110" width="110" height="77" as="geometry">
                        <mxRectangle width="110" height="77" as="alternateBounds"/>
                    </mxGeometry>
                </mxCell>
                <mxCell id="330" value="low-value-tags" style="shape=partialRectangle;html=1;whiteSpace=wrap;connectable=0;fillColor=#0050ef;top=0;left=0;bottom=0;right=0;overflow=hidden;fontColor=#ffffff;strokeColor=#001DBC;" parent="327" vertex="1">
                    <mxGeometry x="220" width="110" height="77" as="geometry">
                        <mxRectangle width="110" height="77" as="alternateBounds"/>
                    </mxGeometry>
                </mxCell>
                <mxCell id="331" value="" style="shape=tableRow;horizontal=0;startSize=0;swimlaneHead=0;swimlaneBody=0;top=0;left=0;bottom=0;right=0;collapsible=0;dropTarget=0;fillColor=none;points=[[0,0.5],[1,0.5]];portConstraint=eastwest;" parent="326" vertex="1">
                    <mxGeometry y="77" width="330" height="76" as="geometry"/>
                </mxCell>
                <mxCell id="332" value="" style="shape=partialRectangle;html=1;whiteSpace=wrap;connectable=0;fillColor=none;top=0;left=0;bottom=0;right=0;overflow=hidden;" parent="331" vertex="1">
                    <mxGeometry width="110" height="76" as="geometry">
                        <mxRectangle width="110" height="76" as="alternateBounds"/>
                    </mxGeometry>
                </mxCell>
                <mxCell id="333" value="" style="shape=partialRectangle;html=1;whiteSpace=wrap;connectable=0;fillColor=none;top=0;left=0;bottom=0;right=0;overflow=hidden;" parent="331" vertex="1">
                    <mxGeometry x="110" width="110" height="76" as="geometry">
                        <mxRectangle width="110" height="76" as="alternateBounds"/>
                    </mxGeometry>
                </mxCell>
                <mxCell id="334" value="" style="shape=partialRectangle;html=1;whiteSpace=wrap;connectable=0;fillColor=none;top=0;left=0;bottom=0;right=0;overflow=hidden;" parent="331" vertex="1">
                    <mxGeometry x="220" width="110" height="76" as="geometry">
                        <mxRectangle width="110" height="76" as="alternateBounds"/>
                    </mxGeometry>
                </mxCell>
                <mxCell id="335" value="" style="shape=tableRow;horizontal=0;startSize=0;swimlaneHead=0;swimlaneBody=0;top=0;left=0;bottom=0;right=0;collapsible=0;dropTarget=0;fillColor=none;points=[[0,0.5],[1,0.5]];portConstraint=eastwest;" parent="326" vertex="1">
                    <mxGeometry y="153" width="330" height="77" as="geometry"/>
                </mxCell>
                <mxCell id="336" value="" style="shape=partialRectangle;html=1;whiteSpace=wrap;connectable=0;fillColor=none;top=0;left=0;bottom=0;right=0;overflow=hidden;" parent="335" vertex="1">
                    <mxGeometry width="110" height="77" as="geometry">
                        <mxRectangle width="110" height="77" as="alternateBounds"/>
                    </mxGeometry>
                </mxCell>
                <mxCell id="337" value="" style="shape=partialRectangle;html=1;whiteSpace=wrap;connectable=0;fillColor=none;top=0;left=0;bottom=0;right=0;overflow=hidden;" parent="335" vertex="1">
                    <mxGeometry x="110" width="110" height="77" as="geometry">
                        <mxRectangle width="110" height="77" as="alternateBounds"/>
                    </mxGeometry>
                </mxCell>
                <mxCell id="338" value="" style="shape=partialRectangle;html=1;whiteSpace=wrap;connectable=0;fillColor=none;top=0;left=0;bottom=0;right=0;overflow=hidden;pointerEvents=1;" parent="335" vertex="1">
                    <mxGeometry x="220" width="110" height="77" as="geometry">
                        <mxRectangle width="110" height="77" as="alternateBounds"/>
                    </mxGeometry>
                </mxCell>
                <mxCell id="339" value="int" style="ellipse;whiteSpace=wrap;html=1;aspect=fixed;" parent="1" vertex="1">
                    <mxGeometry x="70" y="180" width="50" height="50" as="geometry"/>
                </mxCell>
                <mxCell id="340" value="string" style="ellipse;whiteSpace=wrap;html=1;aspect=fixed;" parent="1" vertex="1">
                    <mxGeometry x="180" y="180" width="50" height="50" as="geometry"/>
                </mxCell>
                <mxCell id="341" value="string" style="ellipse;whiteSpace=wrap;html=1;aspect=fixed;" parent="1" vertex="1">
                    <mxGeometry x="290" y="180" width="50" height="50" as="geometry"/>
                </mxCell>
                <mxCell id="342" value="int" style="ellipse;whiteSpace=wrap;html=1;aspect=fixed;" parent="1" vertex="1">
                    <mxGeometry x="400" y="180" width="50" height="50" as="geometry"/>
                </mxCell>
                <mxCell id="343" value="array" style="ellipse;whiteSpace=wrap;html=1;aspect=fixed;" parent="1" vertex="1">
                    <mxGeometry x="510" y="180" width="50" height="50" as="geometry"/>
                </mxCell>
                <mxCell id="344" value="array" style="ellipse;whiteSpace=wrap;html=1;aspect=fixed;" parent="1" vertex="1">
                    <mxGeometry x="620" y="180" width="50" height="50" as="geometry"/>
                </mxCell>
                <mxCell id="345" value="" style="shape=table;html=1;whiteSpace=wrap;startSize=0;container=1;collapsible=0;childLayout=tableLayout;" parent="1" vertex="1">
                    <mxGeometry x="1000" y="90" width="330" height="230" as="geometry"/>
                </mxCell>
                <mxCell id="346" value="" style="shape=tableRow;horizontal=0;startSize=0;swimlaneHead=0;swimlaneBody=0;top=0;left=0;bottom=0;right=0;collapsible=0;dropTarget=0;fillColor=none;points=[[0,0.5],[1,0.5]];portConstraint=eastwest;" parent="345" vertex="1">
                    <mxGeometry width="330" height="77" as="geometry"/>
                </mxCell>
                <mxCell id="347" value="id" style="shape=partialRectangle;html=1;whiteSpace=wrap;connectable=0;fillColor=#0050ef;top=0;left=0;bottom=0;right=0;overflow=hidden;fontColor=#ffffff;strokeColor=#001DBC;" parent="346" vertex="1">
                    <mxGeometry width="110" height="77" as="geometry">
                        <mxRectangle width="110" height="77" as="alternateBounds"/>
                    </mxGeometry>
                </mxCell>
                <mxCell id="348" value="name" style="shape=partialRectangle;html=1;whiteSpace=wrap;connectable=0;fillColor=#0050ef;top=0;left=0;bottom=0;right=0;overflow=hidden;fontColor=#ffffff;strokeColor=#001DBC;" parent="346" vertex="1">
                    <mxGeometry x="110" width="110" height="77" as="geometry">
                        <mxRectangle width="110" height="77" as="alternateBounds"/>
                    </mxGeometry>
                </mxCell>
                <mxCell id="349" value="gender" style="shape=partialRectangle;html=1;whiteSpace=wrap;connectable=0;fillColor=#0050ef;top=0;left=0;bottom=0;right=0;overflow=hidden;fontColor=#ffffff;strokeColor=#001DBC;" parent="346" vertex="1">
                    <mxGeometry x="220" width="110" height="77" as="geometry">
                        <mxRectangle width="110" height="77" as="alternateBounds"/>
                    </mxGeometry>
                </mxCell>
                <mxCell id="350" value="" style="shape=tableRow;horizontal=0;startSize=0;swimlaneHead=0;swimlaneBody=0;top=0;left=0;bottom=0;right=0;collapsible=0;dropTarget=0;fillColor=none;points=[[0,0.5],[1,0.5]];portConstraint=eastwest;" parent="345" vertex="1">
                    <mxGeometry y="77" width="330" height="76" as="geometry"/>
                </mxCell>
                <mxCell id="351" value="" style="shape=partialRectangle;html=1;whiteSpace=wrap;connectable=0;fillColor=none;top=0;left=0;bottom=0;right=0;overflow=hidden;" parent="350" vertex="1">
                    <mxGeometry width="110" height="76" as="geometry">
                        <mxRectangle width="110" height="76" as="alternateBounds"/>
                    </mxGeometry>
                </mxCell>
                <mxCell id="352" value="" style="shape=partialRectangle;html=1;whiteSpace=wrap;connectable=0;fillColor=none;top=0;left=0;bottom=0;right=0;overflow=hidden;" parent="350" vertex="1">
                    <mxGeometry x="110" width="110" height="76" as="geometry">
                        <mxRectangle width="110" height="76" as="alternateBounds"/>
                    </mxGeometry>
                </mxCell>
                <mxCell id="353" value="" style="shape=partialRectangle;html=1;whiteSpace=wrap;connectable=0;fillColor=none;top=0;left=0;bottom=0;right=0;overflow=hidden;" parent="350" vertex="1">
                    <mxGeometry x="220" width="110" height="76" as="geometry">
                        <mxRectangle width="110" height="76" as="alternateBounds"/>
                    </mxGeometry>
                </mxCell>
                <mxCell id="354" value="" style="shape=tableRow;horizontal=0;startSize=0;swimlaneHead=0;swimlaneBody=0;top=0;left=0;bottom=0;right=0;collapsible=0;dropTarget=0;fillColor=none;points=[[0,0.5],[1,0.5]];portConstraint=eastwest;" parent="345" vertex="1">
                    <mxGeometry y="153" width="330" height="77" as="geometry"/>
                </mxCell>
                <mxCell id="355" value="" style="shape=partialRectangle;html=1;whiteSpace=wrap;connectable=0;fillColor=none;top=0;left=0;bottom=0;right=0;overflow=hidden;" parent="354" vertex="1">
                    <mxGeometry width="110" height="77" as="geometry">
                        <mxRectangle width="110" height="77" as="alternateBounds"/>
                    </mxGeometry>
                </mxCell>
                <mxCell id="356" value="" style="shape=partialRectangle;html=1;whiteSpace=wrap;connectable=0;fillColor=none;top=0;left=0;bottom=0;right=0;overflow=hidden;" parent="354" vertex="1">
                    <mxGeometry x="110" width="110" height="77" as="geometry">
                        <mxRectangle width="110" height="77" as="alternateBounds"/>
                    </mxGeometry>
                </mxCell>
                <mxCell id="357" value="" style="shape=partialRectangle;html=1;whiteSpace=wrap;connectable=0;fillColor=none;top=0;left=0;bottom=0;right=0;overflow=hidden;pointerEvents=1;" parent="354" vertex="1">
                    <mxGeometry x="220" width="110" height="77" as="geometry">
                        <mxRectangle width="110" height="77" as="alternateBounds"/>
                    </mxGeometry>
                </mxCell>
                <mxCell id="358" value="" style="shape=table;html=1;whiteSpace=wrap;startSize=0;container=1;collapsible=0;childLayout=tableLayout;" parent="1" vertex="1">
                    <mxGeometry x="1330" y="90" width="330" height="230" as="geometry"/>
                </mxCell>
                <mxCell id="359" value="" style="shape=tableRow;horizontal=0;startSize=0;swimlaneHead=0;swimlaneBody=0;top=0;left=0;bottom=0;right=0;collapsible=0;dropTarget=0;fillColor=none;points=[[0,0.5],[1,0.5]];portConstraint=eastwest;" parent="358" vertex="1">
                    <mxGeometry width="330" height="77" as="geometry"/>
                </mxCell>
                <mxCell id="360" value="age group" style="shape=partialRectangle;html=1;whiteSpace=wrap;connectable=0;fillColor=#0050ef;top=0;left=0;bottom=0;right=0;overflow=hidden;fontColor=#ffffff;strokeColor=#001DBC;" parent="359" vertex="1">
                    <mxGeometry width="110" height="77" as="geometry">
                        <mxRectangle width="110" height="77" as="alternateBounds"/>
                    </mxGeometry>
                </mxCell>
                <mxCell id="361" value="high-value-tags" style="shape=partialRectangle;html=1;whiteSpace=wrap;connectable=0;fillColor=#0050ef;top=0;left=0;bottom=0;right=0;overflow=hidden;fontColor=#ffffff;strokeColor=#001DBC;" parent="359" vertex="1">
                    <mxGeometry x="110" width="110" height="77" as="geometry">
                        <mxRectangle width="110" height="77" as="alternateBounds"/>
                    </mxGeometry>
                </mxCell>
                <mxCell id="362" value="low-value-tags" style="shape=partialRectangle;html=1;whiteSpace=wrap;connectable=0;fillColor=#0050ef;top=0;left=0;bottom=0;right=0;overflow=hidden;fontColor=#ffffff;strokeColor=#001DBC;" parent="359" vertex="1">
                    <mxGeometry x="220" width="110" height="77" as="geometry">
                        <mxRectangle width="110" height="77" as="alternateBounds"/>
                    </mxGeometry>
                </mxCell>
                <mxCell id="363" value="" style="shape=tableRow;horizontal=0;startSize=0;swimlaneHead=0;swimlaneBody=0;top=0;left=0;bottom=0;right=0;collapsible=0;dropTarget=0;fillColor=none;points=[[0,0.5],[1,0.5]];portConstraint=eastwest;" parent="358" vertex="1">
                    <mxGeometry y="77" width="330" height="76" as="geometry"/>
                </mxCell>
                <mxCell id="364" value="" style="shape=partialRectangle;html=1;whiteSpace=wrap;connectable=0;fillColor=none;top=0;left=0;bottom=0;right=0;overflow=hidden;" parent="363" vertex="1">
                    <mxGeometry width="110" height="76" as="geometry">
                        <mxRectangle width="110" height="76" as="alternateBounds"/>
                    </mxGeometry>
                </mxCell>
                <mxCell id="365" value="" style="shape=partialRectangle;html=1;whiteSpace=wrap;connectable=0;fillColor=none;top=0;left=0;bottom=0;right=0;overflow=hidden;" parent="363" vertex="1">
                    <mxGeometry x="110" width="110" height="76" as="geometry">
                        <mxRectangle width="110" height="76" as="alternateBounds"/>
                    </mxGeometry>
                </mxCell>
                <mxCell id="366" value="" style="shape=partialRectangle;html=1;whiteSpace=wrap;connectable=0;fillColor=none;top=0;left=0;bottom=0;right=0;overflow=hidden;" parent="363" vertex="1">
                    <mxGeometry x="220" width="110" height="76" as="geometry">
                        <mxRectangle width="110" height="76" as="alternateBounds"/>
                    </mxGeometry>
                </mxCell>
                <mxCell id="367" value="" style="shape=tableRow;horizontal=0;startSize=0;swimlaneHead=0;swimlaneBody=0;top=0;left=0;bottom=0;right=0;collapsible=0;dropTarget=0;fillColor=none;points=[[0,0.5],[1,0.5]];portConstraint=eastwest;" parent="358" vertex="1">
                    <mxGeometry y="153" width="330" height="77" as="geometry"/>
                </mxCell>
                <mxCell id="368" value="" style="shape=partialRectangle;html=1;whiteSpace=wrap;connectable=0;fillColor=none;top=0;left=0;bottom=0;right=0;overflow=hidden;" parent="367" vertex="1">
                    <mxGeometry width="110" height="77" as="geometry">
                        <mxRectangle width="110" height="77" as="alternateBounds"/>
                    </mxGeometry>
                </mxCell>
                <mxCell id="369" value="" style="shape=partialRectangle;html=1;whiteSpace=wrap;connectable=0;fillColor=none;top=0;left=0;bottom=0;right=0;overflow=hidden;" parent="367" vertex="1">
                    <mxGeometry x="110" width="110" height="77" as="geometry">
                        <mxRectangle width="110" height="77" as="alternateBounds"/>
                    </mxGeometry>
                </mxCell>
                <mxCell id="370" value="" style="shape=partialRectangle;html=1;whiteSpace=wrap;connectable=0;fillColor=none;top=0;left=0;bottom=0;right=0;overflow=hidden;pointerEvents=1;" parent="367" vertex="1">
                    <mxGeometry x="220" width="110" height="77" as="geometry">
                        <mxRectangle width="110" height="77" as="alternateBounds"/>
                    </mxGeometry>
                </mxCell>
                <mxCell id="371" value="int" style="ellipse;whiteSpace=wrap;html=1;aspect=fixed;" parent="1" vertex="1">
                    <mxGeometry x="1030" y="180" width="50" height="50" as="geometry"/>
                </mxCell>
                <mxCell id="372" value="string" style="ellipse;whiteSpace=wrap;html=1;aspect=fixed;" parent="1" vertex="1">
                    <mxGeometry x="1140" y="180" width="50" height="50" as="geometry"/>
                </mxCell>
                <mxCell id="373" value="string" style="ellipse;whiteSpace=wrap;html=1;aspect=fixed;" parent="1" vertex="1">
                    <mxGeometry x="1250" y="180" width="50" height="50" as="geometry"/>
                </mxCell>
                <mxCell id="374" value="int" style="ellipse;whiteSpace=wrap;html=1;aspect=fixed;" parent="1" vertex="1">
                    <mxGeometry x="1360" y="180" width="50" height="50" as="geometry"/>
                </mxCell>
                <mxCell id="375" value="array" style="ellipse;whiteSpace=wrap;html=1;aspect=fixed;" parent="1" vertex="1">
                    <mxGeometry x="1470" y="180" width="50" height="50" as="geometry"/>
                </mxCell>
                <mxCell id="376" value="array" style="ellipse;whiteSpace=wrap;html=1;aspect=fixed;" parent="1" vertex="1">
                    <mxGeometry x="1580" y="180" width="50" height="50" as="geometry"/>
                </mxCell>
                <mxCell id="377" value="" style="endArrow=classic;html=1;exitX=0.5;exitY=1;exitDx=0;exitDy=0;" parent="1" source="182" edge="1">
                    <mxGeometry width="50" height="50" relative="1" as="geometry">
                        <mxPoint x="960" y="850" as="sourcePoint"/>
                        <mxPoint x="940" y="990" as="targetPoint"/>
                    </mxGeometry>
                </mxCell>
                <mxCell id="378" value="step 4" style="rounded=0;whiteSpace=wrap;html=1;" parent="1" vertex="1">
                    <mxGeometry x="1180" y="850" width="120" height="60" as="geometry"/>
                </mxCell>
                <mxCell id="380" value="" style="endArrow=classic;html=1;exitX=0.5;exitY=1;exitDx=0;exitDy=0;entryX=0.5;entryY=0;entryDx=0;entryDy=0;" parent="1" source="378" edge="1">
                    <mxGeometry width="50" height="50" relative="1" as="geometry">
                        <mxPoint x="1260" y="850" as="sourcePoint"/>
                        <mxPoint x="1240" y="990" as="targetPoint"/>
                    </mxGeometry>
                </mxCell>
                <mxCell id="381" value="" style="endArrow=classic;html=1;exitX=1;exitY=0.5;exitDx=0;exitDy=0;entryX=0;entryY=0.5;entryDx=0;entryDy=0;" parent="1" source="182" target="378" edge="1">
                    <mxGeometry width="50" height="50" relative="1" as="geometry">
                        <mxPoint x="990" y="960" as="sourcePoint"/>
                        <mxPoint x="1040" y="910" as="targetPoint"/>
                    </mxGeometry>
                </mxCell>
                <mxCell id="382" value="step 5" style="rounded=0;whiteSpace=wrap;html=1;" parent="1" vertex="1">
                    <mxGeometry x="1460" y="850" width="120" height="60" as="geometry"/>
                </mxCell>
                <mxCell id="383" value="" style="endArrow=classic;html=1;exitX=1;exitY=0.5;exitDx=0;exitDy=0;entryX=0;entryY=0.5;entryDx=0;entryDy=0;" parent="1" source="378" target="382" edge="1">
                    <mxGeometry width="50" height="50" relative="1" as="geometry">
                        <mxPoint x="1390" y="850" as="sourcePoint"/>
                        <mxPoint x="1440" y="800" as="targetPoint"/>
                    </mxGeometry>
                </mxCell>
                <mxCell id="384" value="" style="endArrow=classic;html=1;exitX=0.5;exitY=1;exitDx=0;exitDy=0;" parent="1" source="382" edge="1">
                    <mxGeometry width="50" height="50" relative="1" as="geometry">
                        <mxPoint x="1390" y="850" as="sourcePoint"/>
                        <mxPoint x="1520" y="990" as="targetPoint"/>
                    </mxGeometry>
                </mxCell>
                <mxCell id="385" value="rank all the products and return the one with the highest score (if multiple have the same score return random)" style="rounded=0;whiteSpace=wrap;html=1;" parent="1" vertex="1">
                    <mxGeometry x="1410" y="990" width="220" height="90" as="geometry"/>
                </mxCell>
                <mxCell id="386" value="select all the items for the gender" style="rounded=0;whiteSpace=wrap;html=1;" parent="1" vertex="1">
                    <mxGeometry x="630" y="980" width="120" height="60" as="geometry"/>
                </mxCell>
                <mxCell id="433" value="" style="shape=table;html=1;whiteSpace=wrap;startSize=0;container=1;collapsible=0;childLayout=tableLayout;" vertex="1" parent="1">
                    <mxGeometry x="700" y="435" width="330" height="230" as="geometry"/>
                </mxCell>
                <mxCell id="434" value="" style="shape=tableRow;horizontal=0;startSize=0;swimlaneHead=0;swimlaneBody=0;top=0;left=0;bottom=0;right=0;collapsible=0;dropTarget=0;fillColor=none;points=[[0,0.5],[1,0.5]];portConstraint=eastwest;" vertex="1" parent="433">
                    <mxGeometry width="330" height="77" as="geometry"/>
                </mxCell>
                <mxCell id="435" value="description" style="shape=partialRectangle;html=1;whiteSpace=wrap;connectable=0;fillColor=#0050ef;top=0;left=0;bottom=0;right=0;overflow=hidden;fontColor=#ffffff;strokeColor=#001DBC;" vertex="1" parent="434">
                    <mxGeometry width="110" height="77" as="geometry">
                        <mxRectangle width="110" height="77" as="alternateBounds"/>
                    </mxGeometry>
                </mxCell>
                <mxCell id="436" value="sk-description" style="shape=partialRectangle;html=1;whiteSpace=wrap;connectable=0;fillColor=#0050ef;top=0;left=0;bottom=0;right=0;overflow=hidden;fontColor=#ffffff;strokeColor=#001DBC;" vertex="1" parent="434">
                    <mxGeometry x="110" width="110" height="77" as="geometry">
                        <mxRectangle width="110" height="77" as="alternateBounds"/>
                    </mxGeometry>
                </mxCell>
                <mxCell id="437" value="" style="shape=partialRectangle;html=1;whiteSpace=wrap;connectable=0;fillColor=#0050ef;top=0;left=0;bottom=0;right=0;overflow=hidden;fontColor=#ffffff;strokeColor=#001DBC;" vertex="1" parent="434">
                    <mxGeometry x="220" width="110" height="77" as="geometry">
                        <mxRectangle width="110" height="77" as="alternateBounds"/>
                    </mxGeometry>
                </mxCell>
                <mxCell id="438" value="" style="shape=tableRow;horizontal=0;startSize=0;swimlaneHead=0;swimlaneBody=0;top=0;left=0;bottom=0;right=0;collapsible=0;dropTarget=0;fillColor=none;points=[[0,0.5],[1,0.5]];portConstraint=eastwest;" vertex="1" parent="433">
                    <mxGeometry y="77" width="330" height="76" as="geometry"/>
                </mxCell>
                <mxCell id="439" value="" style="shape=partialRectangle;html=1;whiteSpace=wrap;connectable=0;fillColor=none;top=0;left=0;bottom=0;right=0;overflow=hidden;" vertex="1" parent="438">
                    <mxGeometry width="110" height="76" as="geometry">
                        <mxRectangle width="110" height="76" as="alternateBounds"/>
                    </mxGeometry>
                </mxCell>
                <mxCell id="440" value="" style="shape=partialRectangle;html=1;whiteSpace=wrap;connectable=0;fillColor=none;top=0;left=0;bottom=0;right=0;overflow=hidden;" vertex="1" parent="438">
                    <mxGeometry x="110" width="110" height="76" as="geometry">
                        <mxRectangle width="110" height="76" as="alternateBounds"/>
                    </mxGeometry>
                </mxCell>
                <mxCell id="441" value="" style="shape=partialRectangle;html=1;whiteSpace=wrap;connectable=0;fillColor=none;top=0;left=0;bottom=0;right=0;overflow=hidden;" vertex="1" parent="438">
                    <mxGeometry x="220" width="110" height="76" as="geometry">
                        <mxRectangle width="110" height="76" as="alternateBounds"/>
                    </mxGeometry>
                </mxCell>
                <mxCell id="442" value="" style="shape=tableRow;horizontal=0;startSize=0;swimlaneHead=0;swimlaneBody=0;top=0;left=0;bottom=0;right=0;collapsible=0;dropTarget=0;fillColor=none;points=[[0,0.5],[1,0.5]];portConstraint=eastwest;arcSize=15;" vertex="1" parent="433">
                    <mxGeometry y="153" width="330" height="77" as="geometry"/>
                </mxCell>
                <mxCell id="443" value="" style="shape=partialRectangle;html=1;whiteSpace=wrap;connectable=0;fillColor=none;top=0;left=0;bottom=0;right=0;overflow=hidden;" vertex="1" parent="442">
                    <mxGeometry width="110" height="77" as="geometry">
                        <mxRectangle width="110" height="77" as="alternateBounds"/>
                    </mxGeometry>
                </mxCell>
                <mxCell id="444" value="" style="shape=partialRectangle;html=1;whiteSpace=wrap;connectable=0;fillColor=none;top=0;left=0;bottom=0;right=0;overflow=hidden;" vertex="1" parent="442">
                    <mxGeometry x="110" width="110" height="77" as="geometry">
                        <mxRectangle width="110" height="77" as="alternateBounds"/>
                    </mxGeometry>
                </mxCell>
                <mxCell id="445" value="" style="shape=partialRectangle;html=1;whiteSpace=wrap;connectable=0;fillColor=none;top=0;left=0;bottom=0;right=0;overflow=hidden;pointerEvents=1;" vertex="1" parent="442">
                    <mxGeometry x="220" width="110" height="77" as="geometry">
                        <mxRectangle width="110" height="77" as="alternateBounds"/>
                    </mxGeometry>
                </mxCell>
                <mxCell id="446" value="string" style="ellipse;whiteSpace=wrap;html=1;aspect=fixed;" vertex="1" parent="1">
                    <mxGeometry x="730" y="525" width="50" height="50" as="geometry"/>
                </mxCell>
                <mxCell id="447" value="string" style="ellipse;whiteSpace=wrap;html=1;aspect=fixed;" vertex="1" parent="1">
                    <mxGeometry x="840" y="525" width="50" height="50" as="geometry"/>
                </mxCell>
            </root>
        </mxGraphModel>
    </diagram>
</mxfile>